#Comment line ignore any data following # character 
#Hierarchical Translation and Rotation (.htr) file 
[Header]	
#Header keywords are followed by a single value 
FileType HTR		#Single word string
DataType HTRS		#Translation followed by rotation and scale data
FileVersion 1		#integer
NumSegments 84		#integer
NumFrames 2		#integer
DataFrameRate 30		#integer, data frame rate in this file
EulerRotationOrder ZYX
CalibrationUnits mm
RotationUnits Degrees
GlobalAxisofGravity Y
BoneLengthAxis Y
ScaleFactor 1.00
[SegmentNames&Hierarchy]
#CHILD	PARENT
MASTER GLOBAL
root MASTER
chest root
L_mid_tent01 root
R_mid_tent01 root
spine01 root
Bip01_Neck chest
L_humerus chest
R_humerus chest
weapon_bone chest
Bip01_Head Bip01_Neck
eye_left_bone Bip01_Head
eye_right_bone Bip01_Head
L_forearm L_humerus
L_front_hand L_forearm
L_weapon_bone L_forearm
L_front_hand01_01 L_front_hand
L_front_hand02_01 L_front_hand
L_front_hand03_01 L_front_hand
L_front_hand01_02 L_front_hand01_01
L_front_hand02_02 L_front_hand02_01
L_front_hand03_02 L_front_hand03_01
R_forearm R_humerus
R_front_hand R_forearm
R_weapon_bone R_forearm
R_front_hand01_01 R_front_hand
R_front_hand02_01 R_front_hand
R_front_hand03_01 R_front_hand
R_front_hand01_02 R_front_hand01_01
R_front_hand02_02 R_front_hand02_01
R_front_hand03_02 R_front_hand03_01
null_rope01_connect L_mid_tent01
Rope1_Seg01 null_rope01_connect
Rope1_Seg02 Rope1_Seg01
Rope1_Seg03 Rope1_Seg02
Rope1_Seg04 Rope1_Seg03
Rope1_Seg05 Rope1_Seg04
Rope1_Seg06 Rope1_Seg05
Rope1_Seg07 Rope1_Seg06
Rope1_Seg09 Rope1_Seg07
L_mid_hand01 Rope1_Seg09
L_mid_hand02 Rope1_Seg09
L_mid_hand03 Rope1_Seg09
null_rope02_connect R_mid_tent01
Rope2_Seg01 null_rope02_connect
Rope2_Seg02 Rope2_Seg01
Rope2_Seg03 Rope2_Seg02
Rope2_Seg04 Rope2_Seg03
Rope2_Seg05 Rope2_Seg04
Rope2_Seg06 Rope2_Seg05
Rope2_Seg07 Rope2_Seg06
Rope2_Seg09 Rope2_Seg07
R_mid_hand01 Rope2_Seg09
R_mid_hand02 Rope2_Seg09
R_mid_hand03 Rope2_Seg09
spine02 spine01
spine03 spine02
pelvis spine03
null_rope03_connect pelvis
null_rope04_connect pelvis
Rope3_Seg01 null_rope03_connect
Rope3_Seg02 Rope3_Seg01
Rope3_Seg03 Rope3_Seg02
Rope3_Seg04 Rope3_Seg03
Rope3_Seg05 Rope3_Seg04
Rope3_Seg06 Rope3_Seg05
Rope3_Seg07 Rope3_Seg06
Rope3_Seg08 Rope3_Seg07
Rope3_Seg09 Rope3_Seg08
R_rear_hand01 Rope3_Seg09
R_rear_hand02 Rope3_Seg09
R_rear_hand03 Rope3_Seg09
Rope4_Seg01 null_rope04_connect
Rope4_Seg02 Rope4_Seg01
Rope4_Seg03 Rope4_Seg02
Rope4_Seg04 Rope4_Seg03
Rope4_Seg05 Rope4_Seg04
Rope4_Seg06 Rope4_Seg05
Rope4_Seg07 Rope4_Seg06
Rope4_Seg08 Rope4_Seg07
Rope4_Seg09 Rope4_Seg08
L_rear_hand01 Rope4_Seg09
L_rear_hand02 Rope4_Seg09
L_rear_hand03 Rope4_Seg09
[BasePosition]
#SegmentName Tx, Ty, Tz, Rx, Ry, Rz, BoneLength
MASTER 0.000000 0.000000 0.000000 -90.000000 0.000000 0.000000 10.000000 
root 0.000000 0.000000 0.000000 0.000000 0.000000 0.000000 10.000000 
chest 0.000000 0.000000 0.000000 0.000000 0.000000 0.000000 10.000000 
L_mid_tent01 0.000000 0.000000 0.000000 0.000000 0.000000 0.000000 10.000000 
R_mid_tent01 0.000000 0.000000 0.000000 0.000000 0.000000 0.000000 10.000000 
spine01 0.000000 0.000000 0.000000 0.000000 0.000000 0.000000 10.000000 
Bip01_Neck 0.000000 0.000000 0.000000 0.000000 0.000000 0.000000 10.000000 
L_humerus 0.000000 0.000000 0.000000 0.000000 0.000000 0.000000 10.000000 
R_humerus 0.000000 0.000000 0.000000 0.000000 0.000000 0.000000 10.000000 
weapon_bone 0.000000 0.000000 0.000000 0.000000 0.000000 0.000000 10.000000 
Bip01_Head 0.000000 0.000000 0.000000 0.000000 0.000000 0.000000 10.000000 
eye_left_bone 0.000000 0.000000 0.000000 0.000000 0.000000 0.000000 10.000000 
eye_right_bone 0.000000 0.000000 0.000000 0.000000 0.000000 0.000000 10.000000 
L_forearm 0.000000 0.000000 0.000000 0.000000 0.000000 0.000000 10.000000 
L_front_hand 0.000000 0.000000 0.000000 0.000000 0.000000 0.000000 10.000000 
L_weapon_bone 0.000000 0.000000 0.000000 0.000000 0.000000 0.000000 10.000000 
L_front_hand01_01 0.000000 0.000000 0.000000 0.000000 0.000000 0.000000 10.000000 
L_front_hand02_01 0.000000 0.000000 0.000000 0.000000 0.000000 0.000000 10.000000 
L_front_hand03_01 0.000000 0.000000 0.000000 0.000000 0.000000 0.000000 10.000000 
L_front_hand01_02 0.000000 0.000000 0.000000 0.000000 0.000000 0.000000 10.000000 
L_front_hand02_02 0.000000 0.000000 0.000000 0.000000 0.000000 0.000000 10.000000 
L_front_hand03_02 0.000000 0.000000 0.000000 0.000000 0.000000 0.000000 10.000000 
R_forearm 0.000000 0.000000 0.000000 0.000000 0.000000 0.000000 10.000000 
R_front_hand 0.000000 0.000000 0.000000 0.000000 0.000000 0.000000 10.000000 
R_weapon_bone 0.000000 0.000000 0.000000 0.000000 0.000000 0.000000 10.000000 
R_front_hand01_01 0.000000 0.000000 0.000000 0.000000 0.000000 0.000000 10.000000 
R_front_hand02_01 0.000000 0.000000 0.000000 0.000000 0.000000 0.000000 10.000000 
R_front_hand03_01 0.000000 0.000000 0.000000 0.000000 0.000000 0.000000 10.000000 
R_front_hand01_02 0.000000 0.000000 0.000000 0.000000 0.000000 0.000000 10.000000 
R_front_hand02_02 0.000000 0.000000 0.000000 0.000000 0.000000 0.000000 10.000000 
R_front_hand03_02 0.000000 0.000000 0.000000 0.000000 0.000000 0.000000 10.000000 
null_rope01_connect 0.000000 0.000000 0.000000 0.000000 0.000000 0.000000 10.000000 
Rope1_Seg01 0.000000 0.000000 0.000000 0.000000 0.000000 0.000000 10.000000 
Rope1_Seg02 0.000000 0.000000 0.000000 0.000000 0.000000 0.000000 10.000000 
Rope1_Seg03 0.000000 0.000000 0.000000 0.000000 0.000000 0.000000 10.000000 
Rope1_Seg04 0.000000 0.000000 0.000000 0.000000 0.000000 0.000000 10.000000 
Rope1_Seg05 0.000000 0.000000 0.000000 0.000000 0.000000 0.000000 10.000000 
Rope1_Seg06 0.000000 0.000000 0.000000 0.000000 0.000000 0.000000 10.000000 
Rope1_Seg07 0.000000 0.000000 0.000000 0.000000 0.000000 0.000000 10.000000 
Rope1_Seg09 0.000000 0.000000 0.000000 0.000000 0.000000 0.000000 10.000000 
L_mid_hand01 0.000000 0.000000 0.000000 0.000000 0.000000 0.000000 10.000000 
L_mid_hand02 0.000000 0.000000 0.000000 0.000000 0.000000 0.000000 10.000000 
L_mid_hand03 0.000000 0.000000 0.000000 0.000000 0.000000 0.000000 10.000000 
null_rope02_connect 0.000000 0.000000 0.000000 0.000000 0.000000 0.000000 10.000000 
Rope2_Seg01 0.000000 0.000000 0.000000 0.000000 0.000000 0.000000 10.000000 
Rope2_Seg02 0.000000 0.000000 0.000000 0.000000 0.000000 0.000000 10.000000 
Rope2_Seg03 0.000000 0.000000 0.000000 0.000000 0.000000 0.000000 10.000000 
Rope2_Seg04 0.000000 0.000000 0.000000 0.000000 0.000000 0.000000 10.000000 
Rope2_Seg05 0.000000 0.000000 0.000000 0.000000 0.000000 0.000000 10.000000 
Rope2_Seg06 0.000000 0.000000 0.000000 0.000000 0.000000 0.000000 10.000000 
Rope2_Seg07 0.000000 0.000000 0.000000 0.000000 0.000000 0.000000 10.000000 
Rope2_Seg09 0.000000 0.000000 0.000000 0.000000 0.000000 0.000000 10.000000 
R_mid_hand01 0.000000 0.000000 0.000000 0.000000 0.000000 0.000000 10.000000 
R_mid_hand02 0.000000 0.000000 0.000000 0.000000 0.000000 0.000000 10.000000 
R_mid_hand03 0.000000 0.000000 0.000000 0.000000 0.000000 0.000000 10.000000 
spine02 0.000000 0.000000 0.000000 0.000000 0.000000 0.000000 10.000000 
spine03 0.000000 0.000000 0.000000 0.000000 0.000000 0.000000 10.000000 
pelvis 0.000000 0.000000 0.000000 0.000000 0.000000 0.000000 10.000000 
null_rope03_connect 0.000000 0.000000 0.000000 0.000000 0.000000 0.000000 10.000000 
null_rope04_connect 0.000000 0.000000 0.000000 0.000000 0.000000 0.000000 10.000000 
Rope3_Seg01 0.000000 0.000000 0.000000 0.000000 0.000000 0.000000 10.000000 
Rope3_Seg02 0.000000 0.000000 0.000000 0.000000 0.000000 0.000000 10.000000 
Rope3_Seg03 0.000000 0.000000 0.000000 0.000000 0.000000 0.000000 10.000000 
Rope3_Seg04 0.000000 0.000000 0.000000 0.000000 0.000000 0.000000 10.000000 
Rope3_Seg05 0.000000 0.000000 0.000000 0.000000 0.000000 0.000000 10.000000 
Rope3_Seg06 0.000000 0.000000 0.000000 0.000000 0.000000 0.000000 10.000000 
Rope3_Seg07 0.000000 0.000000 0.000000 0.000000 0.000000 0.000000 10.000000 
Rope3_Seg08 0.000000 0.000000 0.000000 0.000000 0.000000 0.000000 10.000000 
Rope3_Seg09 0.000000 0.000000 0.000000 0.000000 0.000000 0.000000 10.000000 
R_rear_hand01 0.000000 0.000000 0.000000 0.000000 0.000000 0.000000 10.000000 
R_rear_hand02 0.000000 0.000000 0.000000 0.000000 0.000000 0.000000 10.000000 
R_rear_hand03 0.000000 0.000000 0.000000 0.000000 0.000000 0.000000 10.000000 
Rope4_Seg01 0.000000 0.000000 0.000000 0.000000 0.000000 0.000000 10.000000 
Rope4_Seg02 0.000000 0.000000 0.000000 0.000000 0.000000 0.000000 10.000000 
Rope4_Seg03 0.000000 0.000000 0.000000 0.000000 0.000000 0.000000 10.000000 
Rope4_Seg04 0.000000 0.000000 0.000000 0.000000 0.000000 0.000000 10.000000 
Rope4_Seg05 0.000000 0.000000 0.000000 0.000000 0.000000 0.000000 10.000000 
Rope4_Seg06 0.000000 0.000000 0.000000 0.000000 0.000000 0.000000 10.000000 
Rope4_Seg07 0.000000 0.000000 0.000000 0.000000 0.000000 0.000000 10.000000 
Rope4_Seg08 0.000000 0.000000 0.000000 0.000000 0.000000 0.000000 10.000000 
Rope4_Seg09 0.000000 0.000000 0.000000 0.000000 0.000000 0.000000 10.000000 
L_rear_hand01 0.000000 0.000000 0.000000 0.000000 0.000000 0.000000 10.000000 
L_rear_hand02 0.000000 0.000000 0.000000 0.000000 0.000000 0.000000 10.000000 
L_rear_hand03 0.000000 0.000000 0.000000 0.000000 0.000000 0.000000 10.000000 
#Beginning of Data. Separated by tabs
#Fr	Tx	Ty	Tz	Rx	Ry	Rz	SF
[MASTER]
23 -0.000456 2924.038330 3412.648926 0.001660 0.001660 0.001660 4494.015137
24 -0.000475 3043.162598 3286.223877 0.001660 0.001660 0.001660 4478.851074
[root]
23 -28.646080 -60.393375 1502.274780 -95.275940 -13.723796 -91.967453 1503.761108
24 -25.738657 -61.270145 1502.075195 -96.080322 -17.085468 -91.769646 1503.544556
[chest]
23 -84.512650 -34.090519 0.000000 -1.809176 0.923990 -175.612823 91.129311
24 -84.512650 -34.090519 0.000000 -1.849070 0.937273 -177.008972 91.129311
[L_mid_tent01]
23 27.298988 22.179020 -249.918655 -29.372946 17.032673 15.214711 252.381622
24 27.298981 22.179016 -249.918655 -32.285801 14.400942 7.872512 252.381622
[R_mid_tent01]
23 23.228794 24.509907 226.238495 -144.467270 -26.078411 10.402859 228.744751
24 23.228794 24.509907 226.238495 -141.069366 -18.612732 2.668961 228.744751
[spine01]
23 -0.361383 -0.195265 0.000000 0.002089 0.001070 35.737030 0.410763
24 -0.361383 -0.195265 0.000000 0.002083 0.001082 35.098442 0.410763
[Bip01_Neck]
23 165.484543 71.581718 0.000119 176.643677 -1.657967 43.431911 180.302734
24 165.484543 71.581718 0.000119 176.643677 -1.657967 43.431911 180.302734
[L_humerus]
23 -13.983130 -135.272980 -120.471481 157.055298 66.068542 -124.391991 181.680161
24 -13.983130 -135.272980 -120.471481 135.080902 81.066208 -142.210632 181.680161
[R_humerus]
23 -13.983309 -135.273102 125.287651 -162.179565 -63.702694 -114.579140 184.909012
24 -13.983309 -135.273102 125.287651 -162.759750 -80.304680 -109.461266 184.909012
[weapon_bone]
23 235.964890 -300.705902 0.000000 0.000000 -89.951546 -128.212341 382.234833
24 235.964890 -300.705902 0.000000 0.000000 -89.951546 -128.212341 382.234833
[Bip01_Head]
23 213.485107 185.602112 13.243899 2.958399 -2.092813 -12.516633 283.195038
24 213.456528 185.681549 12.216093 3.173227 -0.794990 -17.173708 283.179382
[eye_left_bone]
23 -24.626970 125.451866 -64.772606 0.000000 -90.000000 -99.840431 143.318359
24 -24.626970 125.451866 -64.772606 0.000000 -90.000000 -99.840431 143.318359
[eye_right_bone]
23 -24.626970 125.451866 64.327362 0.000000 -89.965736 80.156380 143.117676
24 -24.626970 125.451866 64.327362 0.000000 -89.965736 80.156380 143.117676
[L_forearm]
23 322.776093 0.000000 -0.000119 0.000422 -0.002309 -110.711510 322.776093
24 322.776093 0.000000 -0.000119 0.000420 -0.002309 -110.612076 322.776093
[L_front_hand]
23 241.149185 -0.042021 -3.300071 -178.667953 -1.835447 -27.422350 241.171753
24 241.149185 -0.042021 -3.300071 -178.667953 -1.835447 -27.422350 241.171753
[L_weapon_bone]
23 156.183838 0.000000 0.000000 0.000014 0.000007 0.000001 156.183838
24 156.183838 0.000000 0.000000 0.000014 0.000007 0.000001 156.183838
[L_front_hand01_01]
23 86.095154 20.947098 -0.655860 -0.321505 -0.503456 70.187172 88.609184
24 86.095154 20.947098 -0.655860 -0.328329 -0.501879 70.955475 88.609184
[L_front_hand02_01]
23 86.935165 -11.437475 24.513514 146.961197 -57.331734 -52.661167 91.046425
24 86.935165 -11.437475 24.513514 147.981094 -57.745903 -53.867275 91.046425
[L_front_hand03_01]
23 86.637497 -14.123976 -20.424902 -146.985443 55.548405 -54.432819 90.126129
24 86.637497 -14.123976 -20.424902 -147.939621 55.963066 -55.586479 90.126129
[L_front_hand01_02]
23 71.020905 -0.000179 0.000030 0.000319 -0.002325 -105.617981 71.020905
24 71.020905 -0.000179 0.000030 0.000320 -0.002325 -105.671494 71.020905
[L_front_hand02_02]
23 71.020927 -0.000119 0.000060 0.000319 -0.002325 -105.617981 71.020927
24 71.020927 -0.000119 0.000060 0.000320 -0.002325 -105.671494 71.020927
[L_front_hand03_02]
23 71.020905 -0.000060 0.000060 0.000319 -0.002325 -105.617981 71.020905
24 71.020905 -0.000060 0.000060 0.000320 -0.002325 -105.671494 71.020905
[R_forearm]
23 322.776428 -0.000060 0.000030 0.201351 0.067447 -109.363091 322.776428
24 322.776428 -0.000060 0.000030 0.201410 0.067273 -109.264053 322.776428
[R_front_hand]
23 238.847015 -0.006795 2.210259 -2.635298 -10.645461 -26.312506 238.857239
24 238.847015 -0.006795 2.210259 -2.635298 -10.645461 -26.312506 238.857239
[R_weapon_bone]
23 155.664093 0.002503 -0.000030 0.003487 0.001180 -90.988930 155.664078
24 155.664093 0.002503 -0.000030 0.003487 0.001180 -90.988930 155.664078
[R_front_hand01_01]
23 87.624611 14.231146 22.918642 -148.462082 -57.932716 54.541962 91.683487
24 87.624611 14.231146 22.918642 -150.319717 -58.611870 56.726910 91.683487
[R_front_hand02_01]
23 89.356956 14.367283 -19.491137 148.801498 56.299915 56.856495 92.579636
24 89.356956 14.367283 -19.491137 150.553192 56.974068 58.956409 92.579636
[R_front_hand03_01]
23 87.286232 -22.307278 -0.143439 0.131531 -0.433516 -71.547462 90.091743
24 87.286232 -22.307278 -0.143439 0.140549 -0.429018 -72.881996 90.091743
[R_front_hand01_02]
23 71.020905 0.000060 0.000119 0.002323 -0.000334 106.381714 71.020905
24 71.020905 0.000060 0.000119 0.002323 -0.000334 106.381714 71.020905
[R_front_hand02_02]
23 71.020844 -0.000030 -0.000119 0.002323 -0.000334 106.381714 71.020836
24 71.020844 -0.000030 -0.000119 0.002323 -0.000334 106.381714 71.020836
[R_front_hand03_02]
23 71.020905 0.000000 0.000030 0.002323 -0.000334 106.381714 71.020905
24 71.020905 0.000000 0.000030 0.002323 -0.000334 106.381714 71.020905
[null_rope01_connect]
23 328.732483 0.000000 -0.000238 -153.262604 -50.406273 -123.009506 328.732483
24 328.732483 0.000000 -0.000238 -149.282120 -48.156448 -115.814629 328.732483
[Rope1_Seg01]
23 0.000022 -0.000189 -0.000172 73.208237 -20.546301 -140.632156 0.000256
24 0.000022 -0.000196 -0.000180 62.392052 -37.576134 -133.955063 0.000267
[Rope1_Seg02]
23 139.999863 -0.000179 0.000000 -34.543941 30.126593 -14.264543 139.999863
24 139.999863 -0.000179 0.000000 -6.392376 15.738588 -7.186327 139.999863
[Rope1_Seg03]
23 139.999924 0.000060 -0.000060 -21.791849 8.083802 4.438461 139.999924
24 139.999924 0.000060 -0.000060 -7.932265 12.326777 -5.040650 139.999924
[Rope1_Seg04]
23 139.999924 -0.000060 -0.000119 0.655092 -6.833395 6.754277 139.999924
24 139.999924 -0.000060 -0.000119 -0.963163 -1.170101 2.435262 139.999924
[Rope1_Seg05]
23 139.999832 0.000119 -0.000060 -0.751598 -2.552997 3.595685 139.999832
24 139.999832 0.000119 -0.000060 1.127555 -4.074376 2.861999 139.999832
[Rope1_Seg06]
23 139.999954 0.000119 -0.000060 -0.601341 -1.445549 2.309356 139.999954
24 139.999954 0.000119 -0.000060 0.001800 -1.007342 1.109537 139.999954
[Rope1_Seg07]
23 139.999985 0.000060 0.000000 -0.331877 -0.938807 1.468393 139.999985
24 139.999985 0.000060 0.000000 0.007166 -0.675967 0.743487 139.999985
[Rope1_Seg09]
23 121.602913 0.000119 -0.000089 -89.793175 -1.359789 0.847147 121.602913
24 121.602913 0.000119 -0.000089 -89.793175 -1.359789 0.847147 121.602913
[L_mid_hand01]
23 103.859421 1.038730 8.195221 130.544373 -67.584534 -38.866943 104.187431
24 103.859421 1.038730 8.195221 130.544373 -67.584534 -38.866943 104.187431
[L_mid_hand02]
23 105.572853 -4.139662 -10.864139 -168.923172 43.409317 -73.498894 106.211075
24 105.572853 -4.139662 -10.864139 -168.923172 43.409309 -73.498886 106.211075
[L_mid_hand03]
23 104.641464 17.579376 -3.913581 -6.012626 17.808172 74.893661 106.179977
24 104.641464 17.579376 -3.913581 -6.012625 17.808172 74.893669 106.179977
[null_rope02_connect]
23 328.732849 0.000179 -0.000119 -144.785034 53.010090 -49.417492 328.732849
24 328.732849 0.000179 -0.000119 -143.401901 54.283993 -60.899212 328.732849
[Rope2_Seg01]
23 0.000098 -0.000122 0.000000 -51.255062 16.537331 -32.088776 0.000157
24 0.000099 -0.000133 0.000000 4.609376 7.082211 -38.164516 0.000166
[Rope2_Seg02]
23 139.999741 -0.000060 -0.000119 -13.360909 3.586772 0.248993 139.999756
24 139.999741 -0.000060 -0.000119 5.250594 2.746130 -2.180328 139.999756
[Rope2_Seg03]
23 140.000107 0.000030 0.000000 -44.029305 4.857889 1.517962 140.000107
24 140.000107 0.000030 0.000000 16.867290 3.260773 -3.121567 140.000107
[Rope2_Seg04]
23 139.999802 0.000000 -0.000060 -66.241631 4.540249 7.231567 139.999802
24 139.999802 0.000000 -0.000060 87.173409 2.909968 -5.565482 139.999802
[Rope2_Seg05]
23 139.999985 -0.000060 0.000119 -20.157116 -8.460735 12.489365 139.999985
24 139.999985 -0.000060 0.000119 37.974888 -7.784132 -4.352188 139.999985
[Rope2_Seg06]
23 139.999893 -0.000030 -0.000119 6.938301 -10.459604 -0.047075 139.999893
24 139.999893 -0.000030 -0.000119 11.692344 -8.514669 -0.612525 139.999893
[Rope2_Seg07]
23 139.999893 0.000060 -0.000060 4.571620 -8.391109 -0.358684 139.999893
24 139.999893 0.000060 -0.000060 7.531647 -8.473197 -0.353295 139.999893
[Rope2_Seg09]
23 121.338966 0.000089 -0.000060 33.793236 -1.359788 -0.847141 121.338966
24 121.338966 0.000089 -0.000060 33.793236 -1.359788 -0.847141 121.338966
[R_mid_hand01]
23 104.680779 11.144459 -10.335981 -16.212055 45.237240 70.462852 105.778534
24 104.680779 11.144459 -10.335981 -16.212059 45.237240 70.462852 105.778534
[R_mid_hand02]
23 104.070427 2.443552 8.231699 49.067383 -67.749779 39.286449 104.424065
24 104.070427 2.443552 8.231699 49.067387 -67.749794 39.286457 104.424065
[R_mid_hand03]
23 106.028137 -11.221827 -5.996406 -177.101105 15.551026 -76.585571 106.788818
24 106.028137 -11.221827 -5.996406 -177.101105 15.551029 -76.585587 106.788818
[spine02]
23 129.756927 0.001550 0.000119 -0.717746 -3.996490 2.318146 129.756927
24 129.756927 0.001550 0.000119 -0.654055 -4.007492 1.412755 129.756927
[spine03]
23 78.614136 0.081654 -4.899022 1.972248 3.793719 17.628386 78.766678
24 78.614143 0.081662 -4.899023 1.967209 3.796761 17.544395 78.766685
[pelvis]
23 169.435242 0.051022 0.000000 -0.069058 -0.178234 16.448206 169.435257
24 169.435242 0.051022 0.000000 -0.068164 -0.178433 16.265984 169.435257
[null_rope03_connect]
23 -1.257226 -2.466202 137.391083 -147.244720 -83.954544 178.836975 137.418976
24 -1.257226 -2.466202 137.391083 -147.708847 -83.250870 -175.549103 137.418976
[null_rope04_connect]
23 -1.259640 -2.480268 -137.844437 -147.244720 -83.954544 178.836975 137.872513
24 -1.259640 -2.480268 -137.844437 -147.708847 -83.250870 -175.549103 137.872513
[Rope3_Seg01]
23 -0.000029 -0.000017 0.000172 -127.585205 38.460903 -67.013824 0.000175
24 -0.000029 -0.000016 0.000180 -129.611832 36.002266 -70.637749 0.000183
[Rope3_Seg02]
23 139.999924 -0.000119 0.000060 0.177921 2.566082 1.905339 139.999924
24 139.999924 -0.000119 0.000060 0.181138 1.482816 -1.420532 139.999924
[Rope3_Seg03]
23 139.999924 -0.000119 0.000119 -0.074323 -0.090879 2.252147 139.999924
24 139.999924 -0.000119 0.000119 -0.125799 -3.207688 0.841336 139.999924
[Rope3_Seg04]
23 139.999924 0.000119 0.000000 -0.053089 0.412777 1.277484 139.999924
24 139.999924 0.000119 0.000000 0.053901 1.530400 -0.902780 139.999924
[Rope3_Seg05]
23 139.999924 -0.000238 0.000060 1.025514 6.318511 -2.364140 139.999924
24 139.999924 -0.000238 0.000060 0.419886 11.209808 -4.858532 139.999924
[Rope3_Seg06]
23 139.999893 -0.000119 -0.000060 1.850266 8.992970 -4.205189 139.999893
24 139.999893 -0.000119 -0.000060 1.149012 12.341437 -5.552616 139.999893
[Rope3_Seg07]
23 139.999771 0.000060 -0.000119 1.605753 5.641276 -2.628308 139.999771
24 139.999771 0.000060 -0.000119 1.284836 7.081286 -3.457593 139.999771
[Rope3_Seg08]
23 139.999985 -0.000060 0.000000 1.385755 3.889349 -1.945791 139.999985
24 139.999985 -0.000060 0.000000 1.168677 4.588311 -2.382103 139.999985
[Rope3_Seg09]
23 90.185997 -0.000179 -0.000060 89.793228 -1.359877 -0.847183 90.185997
24 90.185997 -0.000179 -0.000060 89.793228 -1.359877 -0.847183 90.185997
[R_rear_hand01]
23 103.366196 -6.073594 -10.757982 -177.714203 24.565960 -73.910950 104.101845
24 103.366196 -6.073594 -10.757982 -177.714203 24.565960 -73.910950 104.101845
[R_rear_hand02]
23 100.509819 12.039542 -7.992327 -12.874829 36.868488 72.167213 101.543350
24 100.509819 12.039542 -7.992327 -12.874831 36.868492 72.167221 101.543350
[R_rear_hand03]
23 101.539970 5.215704 5.435467 71.484581 -71.816628 21.513813 101.819031
24 101.539970 5.215704 5.435467 71.484573 -71.816628 21.513819 101.819031
[Rope4_Seg01]
23 0.000010 0.000017 -0.000067 42.650036 7.103187 -133.937347 0.000069
24 0.000010 0.000016 -0.000063 47.288303 0.445606 -126.839920 0.000065
[Rope4_Seg02]
23 139.999985 0.000060 0.000119 -1.759677 2.290524 -2.710241 139.999985
24 139.999985 0.000060 0.000119 -2.176901 -0.000793 -5.337621 139.999985
[Rope4_Seg03]
23 139.999924 0.000000 -0.000238 -2.817220 4.187938 -4.349869 139.999924
24 139.999924 0.000000 -0.000238 -4.209247 0.839638 -8.648865 139.999924
[Rope4_Seg04]
23 139.999985 0.000000 0.000119 -6.684147 13.115834 -10.703453 139.999985
24 139.999985 0.000000 0.000119 -12.296100 6.461890 -19.714384 139.999985
[Rope4_Seg05]
23 139.999802 -0.000060 -0.000119 2.414410 -13.315413 -0.235344 139.999802
24 139.999802 -0.000060 -0.000119 8.283834 -17.743540 4.736271 139.999802
[Rope4_Seg06]
23 139.999924 0.000000 0.000060 2.463652 -7.068401 0.979557 139.999924
24 139.999924 0.000000 0.000060 12.755285 -12.228955 8.526093 139.999924
[Rope4_Seg07]
23 139.999802 0.000000 0.000000 1.212952 -3.092244 0.216326 139.999802
24 139.999802 0.000000 0.000000 6.653156 -4.727104 4.066263 139.999802
[Rope4_Seg08]
23 139.999924 0.000000 0.000119 -0.791992 -1.703661 0.151946 139.999924
24 139.999924 0.000000 0.000119 2.629763 -2.383732 2.594394 139.999924
[Rope4_Seg09]
23 90.185791 0.000060 0.000060 -135.617828 2.228885 0.850567 90.185791
24 90.185791 0.000060 0.000060 -135.617828 2.228885 0.850567 90.185791
[L_rear_hand01]
23 101.696655 -8.392275 -7.654577 -12.874829 -36.868488 107.832764 102.329041
24 101.696655 -8.392275 -7.654577 -12.874829 -36.868488 107.832764 102.329041
[L_rear_hand02]
23 102.726799 -1.568258 5.773216 71.484581 71.816628 158.486160 102.900848
24 102.726799 -1.568258 5.773216 71.484581 71.816628 158.486160 102.900848
[L_rear_hand03]
23 104.552910 9.721220 -10.420293 -177.714203 -24.565960 -106.089035 105.519653
24 104.552910 9.721220 -10.420293 -177.714203 -24.565960 -106.089035 105.519653
